<svg xmlns="http://www.w3.org/2000/svg"  viewBox="0 0 64 64" width="64px" height="64px" baseProfile="basic"><path fill="#9c34c2" d="M53,43c0-3,2-3,2-8s-4-7-4-12S48,7,40,7c-1.066,0-2.025,0.036-2.886,0.098	c-0.589,0.042-1.142-0.214-1.541-0.649C34.441,5.216,32.454,4,29,4c-10,0-18,9-18,22c0,5-3,5-3,9c0,3,1,3,1,7s-2,3-2,9	c0,1.387,0.428,2.561,0.887,3.421C8.409,55.397,9.427,56,10.533,56h42.934c1.106,0,2.124-0.603,2.645-1.579	C56.572,53.561,57,52.387,57,51C57,47,53,46,53,43z"/><path fill="#fff" d="M16,26c0-9.851,5.467-17,13-17c2.376,0,4.356-1.662,4.865-3.884 C32.706,4.469,31.138,4,29,4c-10,0-18,9-18,22c0,2.422-0.704,3.669-1.43,4.767C10.026,30.904,10.5,31,11,31 C13.761,31,16,28.761,16,26z" opacity=".3"/><path d="M56.113,54.421C56.572,53.561,57,52.387,57,51c0-4-4-5-4-8s2-3,2-8c0-1.932-0.599-3.415-1.332-4.798 C51.558,30.788,50,32.703,50,35c0,1.603-0.225,2.038-0.632,2.827C48.823,38.882,48,40.476,48,43c0,3.305,1.917,5.443,3.061,6.721 C51.816,50.563,52,50.814,52,51h-7c-2.761,0-5,2.239-5,5h13.467C54.573,56,55.591,55.397,56.113,54.421z" opacity=".15"/><polygon fill="orange" points="40,56 24,56 24.8,41 39.2,41"/><path fill="#ffce29" d="M18,22v14.496C18,43.77,24.908,52,32,52l0.011-0.073V52c7.092,0,14-8.23,14-15.504V22H18z"/><path fill="orange" d="M46,25c-6.126,0-9.869,1.361-11.925,2.496c-1.266,0.698-2.885,0.698-4.151,0	C27.869,26.361,24.126,25,18,25v-4.018c0-0.545,0.513-0.98,1.148-0.998c5.45-0.157,8.852-1.418,10.776-2.479	c1.266-0.698,2.885-0.698,4.151,0c1.924,1.062,5.326,2.322,10.776,2.479C45.487,20.002,46,20.437,46,20.982V25z"/><ellipse cx="32" cy="61" opacity=".3" rx="19" ry="3"/><path fill="#ffce29" d="M32.522,19.323l0.791,1.596l1.769,0.256c0.477,0.069,0.668,0.653,0.322,0.988l-1.28,1.242	l0.302,1.754c0.082,0.473-0.417,0.834-0.844,0.61L32,24.94l-1.582,0.828c-0.427,0.223-0.926-0.137-0.844-0.61l0.302-1.754	l-1.28-1.242c-0.345-0.335-0.155-0.919,0.322-0.988l1.769-0.256l0.791-1.596C31.692,18.892,32.308,18.892,32.522,19.323z"/><path fill="#fd3c4f" d="M36.29,45.723l-0.03,0.02c-2.591,1.74-5.978,1.733-8.562-0.018l0,0	c-0.852-0.577-0.917-1.809-0.13-2.473l0.701-0.591c0.797-0.672,2.01-0.846,3.026-0.434l0.799,0.324l0.58-0.255	c1.027-0.451,2.282-0.288,3.101,0.402l0.65,0.548C37.214,43.912,37.147,45.148,36.29,45.723z"/><circle cx="39" cy="32" r="2" fill="#9c34c2"/><circle cx="25" cy="32" r="2" fill="#9c34c2"/><path fill="none" stroke="#fff" stroke-linecap="round" stroke-linejoin="round" stroke-miterlimit="10" stroke-width="3" d="M18.529,12.82c1.343-1.739,2.978-3.11,4.835-4.024"/></svg>