<svg xmlns="http://www.w3.org/2000/svg"  viewBox="0 0 64 64" width="64px" height="64px" baseProfile="basic"><path fill="#ffa1ac" d="M16,27v10.966c0,8.843,7.168,16.012,16.012,16.012c8.843,0,16.012-7.168,16.012-16.012V27H16z"/><ellipse cx="32" cy="61" opacity=".3" rx="19" ry="3"/><circle cx="16.5" cy="35.5" r="4.5" fill="#ffa1ac"/><circle cx="47.5" cy="35.5" r="4.5" fill="#ffa1ac"/><path fill="#ffce29" d="M52.35,29.607l-1.908-4.77l2.381-2.567c0.523-0.564,0.24-1.484-0.511-1.655l-3.102-0.708l0.938-4.692	c0.14-0.7-0.477-1.317-1.177-1.177l-4.692,0.938l-1.01-5.052c-0.118-0.59-0.726-0.943-1.297-0.753l-6.321,2.107l-2.84-4.734	c-0.388-0.647-1.327-0.647-1.715,0l-2.84,4.734l-6.321-2.107c-0.571-0.19-1.179,0.163-1.297,0.753l-1.01,5.052l-4.692-0.938	c-0.7-0.14-1.317,0.477-1.177,1.177l0.938,4.692l-3.045,0.708c-0.742,0.173-1.026,1.079-0.516,1.644l2.328,2.578l-1.915,4.789	c-0.263,0.658,0.218,1.373,0.926,1.371c6.488-0.012,32.441-0.055,38.946-0.019C52.132,30.983,52.614,30.266,52.35,29.607z"/><path fill="#9c34c2" d="M48,26c0-1.657-1.343-3-3-3H32H19c-1.657,0-3,1.343-3,3v7h32V26z"/><path fill="#a7b3c7" d="M28,26h8c1.105,0,2,0.895,2,2v0c0,1.105-0.895,2-2,2h-8c-1.105,0-2-0.895-2-2v0	C26,26.895,26.895,26,28,26z"/><path fill="#fd3c4f" d="M25.54,47.348l-3.637,3.031c0.808,0.659,1.682,1.238,2.61,1.731l2.948-2.457 c0.636-0.53,0.722-1.477,0.192-2.112C27.122,46.903,26.177,46.817,25.54,47.348z"/><path fill="#fd3c4f" d="M38.46,47.348c-0.638-0.53-1.583-0.444-2.113,0.192c-0.53,0.636-0.444,1.582,0.192,2.112 l2.957,2.464c0.929-0.492,1.803-1.07,2.612-1.729L38.46,47.348z"/><path fill="#fd3c4f" d="M24.842,42.829c-0.371-0.741-1.271-1.041-2.013-0.671l-5.282,2.641 c0.432,0.913,0.946,1.778,1.536,2.586l5.087-2.544C24.912,44.471,25.212,43.57,24.842,42.829z"/><path fill="#fd3c4f" d="M41.171,42.158c-0.741-0.37-1.642-0.07-2.013,0.671c-0.37,0.741-0.07,1.642,0.671,2.013l5.104,2.552 c0.591-0.808,1.105-1.672,1.538-2.586L41.171,42.158z"/><circle cx="25" cy="37" r="2" fill="#9c34c2"/><circle cx="39" cy="37" r="2" fill="#9c34c2"/><path fill="#fff" d="M13.759,15.215l0.768,3.841l4.12,0.824c0.325,0.064,0.653,0.097,0.98,0.097	c0.98,0,1.946-0.288,2.773-0.84c1.104-0.735,1.87-1.879,2.129-3.18l0.122-0.608l2.022,0.674c2.223,0.741,4.664-0.162,5.869-2.171	l2.326-3.876l-2.058-3.43c-0.388-0.647-1.327-0.647-1.715,0l-2.84,4.734l-6.321-2.107c-0.571-0.19-1.179,0.163-1.297,0.753	l-1.01,5.052l-4.692-0.938C14.236,13.898,13.619,14.515,13.759,15.215z" opacity=".3"/><path d="M47.855,40.165c-2.308-0.691-4.84,0.357-5.925,2.595c-1.124,2.316-3.031,4.178-5.372,5.239	c-2.269,1.03-3.38,3.541-2.74,5.87C41.083,53.053,46.862,47.376,47.855,40.165z" opacity=".15"/><line x1="23.515" x2="26.107" y1="13.388" y2="14.252" fill="none" stroke="#fff" stroke-linecap="round" stroke-linejoin="round" stroke-miterlimit="10" stroke-width="3"/></svg>