<svg xmlns="http://www.w3.org/2000/svg"  viewBox="0 0 64 64" width="64px" height="64px" baseProfile="basic"><ellipse cx="32" cy="61" opacity=".3" rx="19" ry="3"/><path fill="#9c34c2" d="M16.809,14.514c2.399,1.807,6.169,4.531,7.408,7.009c0,0-9.887-0.139-18.435,6.915	c-1.237,1.02-0.794,3.026,0.751,3.454c3.305,0.916,8.297,2.668,12.146,5.627c0,0-7.457,2.346-10.516,9.725	c-0.619,1.494,0.722,3.075,2.297,2.709c5.149-1.197,15.586-2.705,23.141,1.948c0,0,22.331,1.849,25.68-11.181	c2.414-9.398-1.677-14.597-5.8-19.195c-0.001,0-13.901-18.603-36.166-10.49C15.827,11.576,15.544,13.561,16.809,14.514z"/><path fill="#9c34c2" d="M55.954,28.588c0,0,4.968-4.095,5.045-10.412c0.011-0.949-0.682-1.777-1.616-1.947	c-2.265-0.413-6.7-0.664-10.993,2.288L55.954,28.588z"/><path fill="#ffa1ac" d="M41.483,21.009c0.761,0.025,1.247-0.778,0.914-1.463c-1.747-3.583-5.327-5.532-7.32-6.379	c-0.836-0.355-1.805-0.062-2.303,0.709c-1.014,1.57-2.559,4.514-2.754,8.096c-0.044,0.803,0.824,1.316,1.518,0.909	C34.637,21.062,39.153,20.934,41.483,21.009z"/><path d="M59.995,35.796c-2.494-0.358-4.914,1.181-5.556,3.678c-0.248,0.965-1.004,3.904-6.605,5.86 c-2.471,0.862-3.811,3.466-3.172,5.955c6.147-1.104,12.897-3.865,14.62-10.571C59.739,38.934,59.961,37.302,59.995,35.796z" opacity=".15"/><path fill="#fff" d="M31.115,9.118c-4.128-0.382-8.746,0.074-13.8,1.916 c-1.488,0.542-1.771,2.527-0.506,3.48c2.399,1.807,6.169,4.531,7.408,7.009c0,0-9.887-0.139-18.435,6.915 c-1.237,1.02-0.794,3.026,0.751,3.454c0.637,0.177,1.35,0.395,2.092,0.636c0.113-0.079,0.232-0.144,0.34-0.233 c6.935-5.723,15.129-5.772,15.182-5.772c1.745,0.047,3.377-0.863,4.305-2.341c0.929-1.478,1.019-3.333,0.237-4.894 c-0.908-1.817-2.451-3.5-4.126-4.998c0.658-0.103,1.313-0.179,1.963-0.229C29.132,13.857,31.093,11.685,31.115,9.118z" opacity=".3"/><path fill="#fff" d="M38.024,26.018c7.715,0,6.11,15.133,10.318,15.133c2.806,0,6.576-8.648,7.979-8.648	c1.548,0,0.591,13.417-5.505,14.181l-13.823,0.818l-2.475-4.604C29.203,40.183,29.609,26.018,38.024,26.018z"/><path fill="#9c34c2" d="M40.767,37.941c-0.517,2.473-1.726,4.281-2.703,4.037c-0.975-0.244-1.348-2.446-0.831-4.919	c0.517-2.473,1.726-4.281,2.703-4.037C40.912,33.265,41.284,35.468,40.767,37.941z"/><path fill="#9c34c2" d="M50.158,40.165c-0.267,1.372-0.2,2.509,0.229,2.777c0.558,0.349,1.509-0.908,2.123-2.808	c0.524-1.622,0.631-3.18,0.304-3.821C51.798,36.969,50.965,38.88,50.158,40.165z"/><path fill="#ffa1ac" d="M27.983,45.367c0-1.795,0.984-4.381,3.96-4.381s4.203,3.957,8.158,4.913	c2.483,0.6,8.484-1.645,10.93-0.603c1.531,0.653,2.684,1.509,2.446,2.992c-0.709,4.432-6.634,6.729-13.461,6.729	C29.837,55.017,27.983,47.961,27.983,45.367z"/><path d="M40.016,55.017c6.827,0,12.752-2.297,13.461-6.729c0.132-0.821-0.172-1.445-0.721-1.954	c-1.586-0.249-3.262,0.268-4.437,1.53c-0.967,1.037-3.978,2.153-8.303,2.153c-2.528,0-4.595,1.882-4.931,4.317	C36.46,54.762,38.087,55.017,40.016,55.017z" opacity=".15"/><path fill="#fd3c4f" d="M34.988,47.314c0.878,0.809,2.244,1.763,4.164,2.286c1.058,0.288,1.154,1.618,0.133,2	C38.657,51.836,37.855,52,36.839,52c-2.702,0-4.044-1.986-3.814-4.09C33.12,47.041,34.316,46.695,34.988,47.314z"/><path fill="#9c34c2" d="M55.422,49.315c-1.864,1.054-3.788,0.873-4.297-0.406c-0.509-1.278,0.589-3.17,2.454-4.223	c1.864-1.054,3.788-0.873,4.297,0.406C58.384,46.369,57.286,48.26,55.422,49.315z"/><path fill="none" stroke="#fff" stroke-linecap="round" stroke-linejoin="round" stroke-miterlimit="10" stroke-width="3" d="M22.522,13.489c0,0,1.972-0.994,4.972-0.994"/></svg>