<svg xmlns="http://www.w3.org/2000/svg"  viewBox="0 0 64 64" width="64px" height="64px"><path fill="#ffce29" d="M50.757,30c0,0-9.757-7-18.814-7C23,23,13.243,30,13.243,30c0,4-1.243,7.995-1.243,10.5	C12,51.822,25.171,56,32,56s20-4.178,20-15.5C52,37.995,50.757,35,50.757,30z"/><path fill="#cd2e42" d="M53,32c0.571-1.979,2-2.001,2-6c0-8-10.297-20-23-20S9,18,9,26c0,3.999,1.429,4.021,2,6	c0,0,12-7,21.028-7C40,25,53,32,53,32z"/><path fill="none" stroke="#fff" stroke-linecap="round" stroke-miterlimit="10" stroke-width="3" d="M15.468,17.739	c0.727-0.932,1.553-1.841,2.464-2.698s1.907-1.664,2.973-2.391"/><path fill="#fff" d="M9.925,21.476c0.74,0.394,1.54,0.595,2.337,0.595c1.591,0,3.155-0.757,4.125-2.167	c2.25-3.272,5.583-6.02,9.144-7.535c2.368-1.008,3.531-3.625,2.806-6.034C19.522,7.933,12.384,15.011,9.925,21.476z" opacity=".3"/><ellipse cx="32" cy="61" opacity=".3" rx="19" ry="3"/><path fill="#ffce29" d="M58,36c0,3.314-2.686,6-6,6s-6-2.686-6-6c0-2.898,1.268-5.439,4-6c0,0,1.584,0,2,0	C55.314,30,58,32.686,58,36z"/><path fill="#ffce29" d="M6,36c0,3.314,2.686,6,6,6s6-2.686,6-6c0-2.898-1.268-5.439-4-6c0,0-1.584,0-2,0	C8.686,30,6,32.686,6,36z"/><path d="M51.818,42.709c-2.175-0.83-4.703-0.046-5.999,1.995c-1.58,2.49-4.881,4.539-9.054,5.622	c-2.52,0.655-4.064,3.118-3.655,5.637C39.654,55.576,50.32,51.832,51.818,42.709z" opacity=".15"/><circle cx="32" cy="17.5" r="7.5" fill="#ffa1ac"/><path fill="#cd2e42" d="M28.454,21.153c-0.271,0-0.479-0.076-0.624-0.229c-0.144-0.151-0.216-0.364-0.216-0.636v-6.948 c0-0.28,0.076-0.494,0.228-0.642c0.152-0.148,0.368-0.223,0.648-0.223c0.24,0,0.43,0.049,0.57,0.145 c0.14,0.096,0.27,0.252,0.39,0.468l2.568,4.692l2.567-4.692c0.12-0.216,0.25-0.372,0.391-0.468c0.14-0.096,0.325-0.145,0.558-0.145 c0.272,0,0.482,0.074,0.63,0.223c0.148,0.147,0.223,0.361,0.223,0.642v6.948c0,0.576-0.28,0.864-0.841,0.864 c-0.567,0-0.852-0.288-0.852-0.864v-4.404l-1.968,3.54c-0.097,0.152-0.198,0.267-0.307,0.342c-0.107,0.076-0.25,0.114-0.426,0.114 s-0.32-0.038-0.432-0.114c-0.112-0.075-0.212-0.189-0.3-0.342l-1.969-3.504v4.368C29.293,20.865,29.013,21.153,28.454,21.153z"/><path fill="#9c34c2" d="M16.707,34.293l-2,2C14.077,36.923,13,36.477,13,35.586V30l4-3v6.586	C17,33.851,16.895,34.105,16.707,34.293z"/><path fill="#9c34c2" d="M47.293,34.293l2,2c0.63,0.63,1.707,0.184,1.707-0.707V30l-4-3v6.586	C47,33.851,47.105,34.105,47.293,34.293z"/><circle cx="23.5" cy="33.5" r="2.5" fill="#bd6300"/><circle cx="40.5" cy="33.5" r="2.5" fill="#bd6300"/><path fill="#9c34c2" d="M45.807,39H18.333c-0.75,0-1.239,0.794-0.89,1.458c0.189,0.36,0.426,0.771,0.709,1.213	C18.06,41.931,18,42.208,18,42.5c0,1.231,0.892,2.249,2.063,2.456C20.024,45.132,20,45.313,20,45.5c0,1.381,1.119,2.5,2.5,2.5	c0.187,0,0.368-0.024,0.544-0.063C23.251,49.108,24.269,50,25.5,50c0.76,0,1.432-0.346,1.89-0.88c0.277,1.079,1.248,1.88,2.413,1.88	c0.946,0,1.759-0.532,2.184-1.307C32.412,50.468,33.225,51,34.171,51c1.174,0,2.151-0.812,2.42-1.903C37.05,49.645,37.73,50,38.5,50	c1.231,0,2.249-0.892,2.456-2.063C41.132,47.976,41.313,48,41.5,48c1.381,0,2.5-1.119,2.5-2.5c0-0.187-0.024-0.368-0.063-0.544	C45.108,44.749,46,43.731,46,42.5c0-0.203-0.031-0.398-0.077-0.588c0.336-0.554,0.604-1.072,0.799-1.507	C47.02,39.744,46.532,39,45.807,39z"/><ellipse cx="32" cy="40" fill="orange" rx="7" ry="6"/><path fill="none" stroke="#9c34c2" stroke-linecap="round" stroke-miterlimit="10" stroke-width="3" d="M20.672,28.672	c0.724-0.724,1.724-1.172,2.828-1.172s2.105,0.448,2.828,1.172"/><path fill="none" stroke="#9c34c2" stroke-linecap="round" stroke-miterlimit="10" stroke-width="3" d="M37.672,28.672	c0.724-0.724,1.724-1.172,2.828-1.172s2.105,0.448,2.828,1.172"/><path fill="#fd3c4f" d="M51,30c0-6-8-12-19-12s-19,6-19,12c0,0,6-4,18.978-4C45,26,51,30,51,30z"/></svg>