<svg xmlns="http://www.w3.org/2000/svg"  viewBox="0 0 64 64" width="64px" height="64px"><circle cx="15.5" cy="32.5" r="6.5" fill="orange"/><circle cx="48.5" cy="32.5" r="6.5" fill="orange"/><ellipse cx="31.5" cy="61" opacity=".3" rx="19" ry="3"/><path fill="#ffce29" d="M47.522,46.097L37,55H27l-10.522-8.903C14.907,44.767,14,42.812,14,40.753V17c0,0,5.5-4,17.5-4	S50,16,50,16v24.753C50,42.812,49.093,44.767,47.522,46.097z"/><path fill="#9c34c2" d="M51,20H13l3.01-11.288C16.594,6.523,18.576,5,20.841,5h22.317c2.265,0,4.248,1.523,4.831,3.712L51,20	z"/><polygon fill="#a0effe" points="14.6,14 13,20 51,20 49.4,14"/><path fill="#9c34c2" d="M54,26H10c-2.761,0-5-2.239-5-5v0c0-1.105,0.895-2,2-2h50c1.105,0,2,0.895,2,2v0	C59,23.761,56.761,26,54,26z"/><path d="M45,40v0.754c0,0.589-0.258,1.145-0.708,1.526l-6.038,5.109c-2.108,1.783-2.371,4.938-0.587,7.046 l0,0l9.855-8.339C49.093,44.767,50,42.812,50,40.753V35C47.239,35,45,37.238,45,40z" opacity=".15"/><path fill="#fff" d="M16.01,8.712L14.6,14l-1.288,4.831c0,0,0,0,0,0c0.432,0.115,0.865,0.17,1.292,0.17 c2.209,0,4.231-1.477,4.828-3.713L20.841,10H27c2.761,0,5-2.238,5-5H20.841C18.576,5,16.594,6.523,16.01,8.712z" opacity=".3"/><path fill="#9c34c2" d="M17,29v3c0,1.657,1.343,3,3,3h7c1.657,0,3-1.343,3-3v0c0-1.105,0.895-2,2-2h0c1.105,0,2,0.895,2,2v0	c0,1.657,1.343,3,3,3h7c1.657,0,3-1.343,3-3v-3c0-1.657-1.343-3-3-3H20C18.343,26,17,27.343,17,29z"/><path fill="#9c34c2" d="M36,40h-8c-2.209,0-4,1.791-4,4v7c0,2.209,1.791,4,4,4h8c2.209,0,4-1.791,4-4v-7	C40,41.791,38.209,40,36,40z M36,50c0,0.552-0.448,1-1,1h-1v-2c0-1.104-0.895-2-2-2h0c-1.104,0-2,0.895-2,2v2h-1	c-0.552,0-1-0.448-1-1v-5c0-0.552,0.448-1,1-1h6c0.552,0,1,0.448,1,1V50z"/><path fill="none" stroke="#fff" stroke-linecap="round" stroke-linejoin="round" stroke-miterlimit="10" stroke-width="3" d="M18.08,12.595l0.829-3.11C19.142,8.61,19.937,8,20.841,8H23.5"/></svg>